<?xml version="1.0" encoding="UTF-8"?>
<svg xmlns="http://www.w3.org/2000/svg" xmlns:xlink="http://www.w3.org/1999/xlink" viewBox="0 0 48 48" width="48px" height="48px">
<g id="surface11375397">
<path style=" stroke:none;fill-rule:nonzero;fill:rgb(100%,100%,100%);fill-opacity:1;" d="M 39 7 L 9 7 C 7.347656 7 6 8.347656 6 10 L 6 11 C 6 12.402344 6.96875 13.582031 8.269531 13.910156 L 10.664062 39.464844 C 10.90625 42.050781 13.046875 44 15.644531 44 L 32.359375 44 C 34.953125 44 37.09375 42.050781 37.335938 39.46875 L 39.734375 13.910156 C 41.03125 13.582031 42 12.402344 42 11 L 42 10 C 42 8.347656 40.652344 7 39 7 Z M 39 7 "/>
<path style=" stroke:none;fill-rule:nonzero;fill:rgb(19.607843%,27.058825%,38.039216%);fill-opacity:1;" d="M 29 9 C 28.445312 9 28 8.554688 28 8 L 28 6 C 28 4.898438 27.101562 4 26 4 L 22 4 C 20.898438 4 20 4.898438 20 6 L 20 8 C 20 8.554688 19.554688 9 19 9 C 18.445312 9 18 8.554688 18 8 L 18 6 C 18 3.792969 19.792969 2 22 2 L 26 2 C 28.207031 2 30 3.792969 30 6 L 30 8 C 30 8.554688 29.554688 9 29 9 Z M 29 9 "/>
<path style=" stroke:none;fill-rule:nonzero;fill:rgb(19.607843%,27.058825%,38.039216%);fill-opacity:1;" d="M 24 38 C 23.445312 38 23 37.554688 23 37 L 23 21 C 23 20.445312 23.445312 20 24 20 C 24.554688 20 25 20.445312 25 21 L 25 37 C 25 37.554688 24.554688 38 24 38 Z M 24 38 "/>
<path style=" stroke:none;fill-rule:nonzero;fill:rgb(19.607843%,27.058825%,38.039216%);fill-opacity:1;" d="M 31 38 C 30.980469 38 30.960938 38 30.9375 37.996094 C 30.386719 37.964844 29.96875 37.488281 30.003906 36.9375 L 31.003906 20.9375 C 31.035156 20.386719 31.515625 19.980469 32.0625 20 C 32.613281 20.035156 33.03125 20.511719 33 21.0625 L 32 37.0625 C 31.964844 37.59375 31.523438 38 31 38 Z M 31 38 "/>
<path style=" stroke:none;fill-rule:nonzero;fill:rgb(19.607843%,27.058825%,38.039216%);fill-opacity:1;" d="M 17 38 C 16.476562 38 16.035156 37.59375 16.003906 37.0625 L 15.003906 21.0625 C 14.96875 20.511719 15.386719 20.035156 15.9375 20 C 16.480469 19.980469 16.964844 20.386719 17 20.9375 L 18 36.9375 C 18.03125 37.488281 17.613281 37.964844 17.0625 37.996094 C 17.039062 38 17.019531 38 17 38 Z M 17 38 "/>
<path style=" stroke:none;fill-rule:nonzero;fill:rgb(19.607843%,27.058825%,38.039216%);fill-opacity:1;" d="M 36 15 L 12 15 C 11.445312 15 11 14.554688 11 14 C 11 13.445312 11.445312 13 12 13 L 36 13 C 36.554688 13 37 13.445312 37 14 C 37 14.554688 36.554688 15 36 15 Z M 36 15 "/>
</g>
</svg>
